<?xml version="1.0" encoding="UTF-8"?>
<!DOCTYPE svg PUBLIC "-//W3C//DTD SVG 1.1//EN" "http://www.w3.org/Graphics/SVG/1.1/DTD/svg11.dtd">
<!-- Creator: CorelDRAW 2019 (64-Bit) -->
<svg xmlns="http://www.w3.org/2000/svg" xml:space="preserve" width="100%" height="100%" version="1.1" style="shape-rendering:geometricPrecision; text-rendering:geometricPrecision; image-rendering:optimizeQuality; fill-rule:evenodd; clip-rule:evenodd"
viewBox="0 0 2662.89 678.83"
 xmlns:xlink="http://www.w3.org/1999/xlink"
 xmlns:xodm="http://www.corel.com/coreldraw/odm/2003">
 <defs>
  <style type="text/css">
   <![CDATA[
    .fil1 {fill:red}
    .fil0 {fill:white;fill-rule:nonzero}
   ]]>
  </style>
 </defs>
 <g id="Layer_x0020_1">
  <metadata id="CorelCorpID_0Corel-Layer"/>
  <path class="fil0" d="M-0 665.26l0 -665.26 342.54 0c63.49,0 112.11,5.42 145.56,16.42 33.61,10.84 60.7,31.13 81.3,60.55 20.6,29.58 30.82,65.66 30.82,108.09 0,36.85 -7.9,68.76 -23.69,95.55 -15.64,26.94 -37.32,48.62 -65.04,65.35 -17.5,10.53 -41.66,19.36 -72.17,26.33 24.47,8.21 42.28,16.26 53.43,24.47 7.43,5.42 18.43,17.19 32.83,35 14.25,17.81 23.85,31.59 28.65,41.35l99.88 192.18 -232.28 0 -109.8 -202.86c-13.94,-26.33 -26.33,-43.36 -37.17,-51.26 -14.87,-10.22 -31.74,-15.33 -50.48,-15.33l-18.12 0 0 269.45 -206.27 0zm206.27 -394.88l86.87 0c9.29,0 27.57,-3.1 54.51,-9.14 13.63,-2.63 24.78,-9.6 33.29,-20.91 8.67,-11.3 13.01,-24.16 13.01,-38.71 0,-21.53 -6.81,-38.1 -20.44,-49.56 -13.63,-11.61 -39.18,-17.35 -76.81,-17.35l-90.44 0 0 135.66zm455.28 155.17c0,-73.71 24.78,-134.42 74.33,-182.11 49.56,-47.7 116.45,-71.55 200.69,-71.55 96.48,0 169.26,28.03 218.5,84.09 39.49,45.22 59.31,100.81 59.31,166.78 0,74.33 -24.47,135.04 -73.56,182.57 -49.09,47.39 -117.07,71.08 -203.79,71.08 -77.27,0 -139.83,-19.67 -187.53,-59.15 -58.69,-48.78 -87.96,-112.74 -87.96,-191.71zm184.9 -0.31c0,43.2 8.67,75.11 26.02,95.7 17.35,20.6 39.02,30.97 65.35,30.97 26.48,0 48.16,-10.22 65.19,-30.51 17.04,-20.29 25.55,-52.96 25.55,-97.87 0,-41.96 -8.52,-73.09 -25.7,-93.69 -17.19,-20.44 -38.41,-30.66 -63.8,-30.66 -26.79,0 -48.94,10.37 -66.43,31.13 -17.5,20.91 -26.17,52.5 -26.17,94.93zm816.71 51.41l175.61 19.51c-9.76,36.7 -25.55,68.44 -47.7,95.39 -21.99,26.79 -50.33,47.7 -84.71,62.56 -34.22,14.87 -77.89,22.3 -130.85,22.3 -51.26,0 -93.84,-4.8 -127.91,-14.25 -33.91,-9.6 -63.18,-25.09 -87.8,-46.46 -24.47,-21.21 -43.67,-46.3 -57.61,-75.1 -13.94,-28.8 -20.91,-66.9 -20.91,-114.44 0,-49.56 8.52,-90.9 25.4,-123.89 12.39,-24.31 29.42,-45.99 50.94,-65.19 21.53,-19.2 43.52,-33.6 66.28,-42.9 36.08,-14.87 82.23,-22.3 138.44,-22.3 78.82,0 138.75,14.09 180.1,42.12 41.35,28.19 70.31,69.22 87.03,123.27l-173.75 23.23c-5.42,-20.6 -15.33,-36.08 -29.73,-46.61 -14.4,-10.37 -33.76,-15.64 -58.07,-15.64 -30.5,0 -55.28,10.99 -74.33,32.83 -18.89,21.99 -28.34,55.13 -28.34,99.73 0,39.64 9.45,69.69 28.19,90.28 18.74,20.59 42.59,30.81 71.7,30.81 24.16,0 44.6,-6.19 61.02,-18.43 16.57,-12.39 28.8,-31.28 37.01,-56.83zm429.26 -137.51l-176.54 -18.58c6.66,-30.97 16.26,-55.28 28.8,-72.94 12.54,-17.81 30.51,-33.14 54.2,-46.15 16.88,-9.44 40.11,-16.72 69.69,-21.83 29.58,-5.11 61.63,-7.74 96.17,-7.74 55.28,0 99.57,3.1 133.18,9.29 33.45,6.2 61.48,19.2 83.78,38.87 15.8,13.63 28.19,32.98 37.17,57.92 9.14,24.93 13.63,48.78 13.63,71.54l0 213.08c0,22.76 1.39,40.57 4.33,53.43 2.79,12.85 9.14,29.27 18.74,49.24l-172.97 0c-6.97,-12.39 -11.46,-21.68 -13.63,-28.19 -2.01,-6.5 -4.18,-16.57 -6.35,-30.35 -24.16,23.23 -48.16,39.8 -72.17,49.71 -32.67,13.32 -70.61,19.98 -113.82,19.98 -57.45,0 -101.12,-13.32 -130.85,-40.11 -29.89,-26.64 -44.75,-59.62 -44.75,-98.65 0,-36.7 10.69,-66.9 32.21,-90.59 21.53,-23.69 61.17,-41.35 118.93,-52.81 69.22,-13.94 114.13,-23.69 134.72,-29.42 20.59,-5.57 42.43,-12.85 65.35,-21.99 0,-22.76 -4.65,-38.56 -14.09,-47.7 -9.29,-9.14 -25.7,-13.63 -49.24,-13.63 -30.2,0 -52.81,4.8 -67.98,14.56 -11.77,7.74 -21.22,21.99 -28.5,43.05zm159.81 96.63c-25.39,9.13 -51.87,17.19 -79.59,24.31 -37.48,10.07 -61.32,19.98 -71.23,29.73 -10.38,10.07 -15.49,21.53 -15.49,34.38 0,14.71 5.11,26.79 15.18,36.08 10.22,9.29 25.09,13.94 44.75,13.94 20.6,0 39.8,-5.11 57.61,-15.18 17.65,-10.06 30.2,-22.3 37.63,-36.85 7.43,-14.56 11.15,-33.45 11.15,-56.68l0 -29.73z"/>
  <circle class="fil1" cx="2614.98" cy="630.92" r="47.91"/>
 </g>
</svg>
